<?xml version="1.0" encoding="UTF-8" standalone="no"?>
<!-- Created with Inkscape (http://www.inkscape.org/) -->

<svg
   xmlns:dc="http://purl.org/dc/elements/1.1/"
   xmlns:cc="http://creativecommons.org/ns#"
   xmlns:rdf="http://www.w3.org/1999/02/22-rdf-syntax-ns#"
   xmlns:svg="http://www.w3.org/2000/svg"
   xmlns="http://www.w3.org/2000/svg"
   xmlns:sodipodi="http://sodipodi.sourceforge.net/DTD/sodipodi-0.dtd"
   xmlns:inkscape="http://www.inkscape.org/namespaces/inkscape"
   width="210mm"
   height="297mm"
   viewBox="0 0 210 297"
   version="1.1"
   id="svg8"
   inkscape:version="0.92.2 (5c3e80d, 2017-08-06)"
   sodipodi:docname="arrow_sign.svg">
  <defs
     id="defs2" />
  <sodipodi:namedview
     id="base"
     pagecolor="#ffffff"
     bordercolor="#666666"
     borderopacity="1.0"
     inkscape:pageopacity="0.0"
     inkscape:pageshadow="2"
     inkscape:zoom="0.7"
     inkscape:cx="609.47026"
     inkscape:cy="846.14534"
     inkscape:document-units="mm"
     inkscape:current-layer="layer1"
     showgrid="false"
     inkscape:pagecheckerboard="true"
     inkscape:measure-start="0,0"
     inkscape:measure-end="0,0"
     inkscape:window-width="1920"
     inkscape:window-height="1028"
     inkscape:window-x="-8"
     inkscape:window-y="-8"
     inkscape:window-maximized="1" />
  <metadata
     id="metadata5">
    <rdf:RDF>
      <cc:Work
         rdf:about="">
        <dc:format>image/svg+xml</dc:format>
        <dc:type
           rdf:resource="http://purl.org/dc/dcmitype/StillImage" />
        <dc:title />
      </cc:Work>
    </rdf:RDF>
  </metadata>
  <g
     inkscape:label="Layer 1"
     inkscape:groupmode="layer"
     id="layer1">
    <path
       style="fill:#ffffff;stroke-width:0.26458332"
       d="M 54.128333,34.27028 V 47.109289 H 20.978418 L 0.71114713,60.939145 20.978418,78.645347 v 0.119374 h 0.104386 l 0.08888,0.101802 0.102836,-0.101802 h 32.853809 v 75.324089 h 10.961603 c -1.340649,-26.44868 -1.675321,-51.89138 0,-75.324089 h 31.105596 c 2.634406,-10.376183 2.710762,-20.922903 0,-31.655432 H 65.089936 V 34.27028 c -5.332627,-3.357518 -8.644596,-2.673723 -10.961603,0 z"
       id="rect35"
       inkscape:connector-curvature="0"
       sodipodi:nodetypes="cccccccccccccccccc"
       inkscape:export-filename="C:\dev\bubble\Assets\Sprites\arrow_sign.png"
       inkscape:export-xdpi="147.72754"
       inkscape:export-ydpi="147.72754" />
    <path
       style="fill:#ffffff;stroke-width:0.99999994"
       d="M 542.00781 123.52734 C 491.17918 123.91274 442.87973 130.07559 435.69727 142.30273 C 422.16069 165.34689 498.54893 305.43741 537.40039 337.94531 L 537.40039 550.63281 C 537.40039 554.62789 540.6182 557.84375 544.61328 557.84375 L 557.46484 557.84375 C 561.45993 557.84375 564.67578 554.62789 564.67578 550.63281 L 564.67578 337.40234 C 604.29958 304.10505 681.48538 167.11681 668.39844 144.05078 C 660.46761 130.07251 599.6136 123.09056 542.00781 123.52734 z "
       transform="scale(0.26458333)"
       id="path26" />
    <rect
       style="fill:#000000;stroke-width:0.26458332"
       id="rect36"
       width="8.6862593"
       height="18.575233"
       x="140.98466"
       y="40.822159"
       ry="1.9080003" />
    <path
       style="fill:#000000;stroke-width:0.26458332"
       id="path40"
       sodipodi:type="arc"
       sodipodi:cx="145.3278"
       sodipodi:cy="67.749565"
       sodipodi:rx="4.3431296"
       sodipodi:ry="4.2094951"
       sodipodi:start="5.9485207"
       sodipodi:end="5.8462072"
       d="m 149.42998,66.366946 a 4.3431296,4.2094951 0 0 1 -2.57122,5.321912 4.3431296,4.2094951 0 0 1 -5.55482,-2.355175 4.3431296,4.2094951 0 0 1 2.28708,-5.442381 4.3431296,4.2094951 0 0 1 5.67181,2.07679"
       sodipodi:open="true" />
  </g>
</svg>
