<?xml version="1.0" encoding="UTF-8" standalone="no"?>
<!-- Created with Inkscape (http://www.inkscape.org/) -->

<svg
   xmlns:dc="http://purl.org/dc/elements/1.1/"
   xmlns:cc="http://creativecommons.org/ns#"
   xmlns:rdf="http://www.w3.org/1999/02/22-rdf-syntax-ns#"
   xmlns:svg="http://www.w3.org/2000/svg"
   xmlns="http://www.w3.org/2000/svg"
   xmlns:sodipodi="http://sodipodi.sourceforge.net/DTD/sodipodi-0.dtd"
   xmlns:inkscape="http://www.inkscape.org/namespaces/inkscape"
   width="1920px"
   height="1080px"
   viewBox="0 0 1920 1080"
   version="1.1"
   id="SVGRoot"
   inkscape:export-filename="C:\dev\bubble\Assets\Sprites\background1.png"
   inkscape:export-xdpi="96"
   inkscape:export-ydpi="96"
   inkscape:version="0.92.2 (5c3e80d, 2017-08-06)"
   sodipodi:docname="bg1.svg">
  <sodipodi:namedview
     id="base"
     pagecolor="#ffffff"
     bordercolor="#666666"
     borderopacity="1.0"
     inkscape:pageopacity="0.0"
     inkscape:pageshadow="2"
     inkscape:zoom="0.35"
     inkscape:cx="1069.5695"
     inkscape:cy="480.67119"
     inkscape:document-units="px"
     inkscape:current-layer="layer1"
     showgrid="false"
     inkscape:window-width="1920"
     inkscape:window-height="1028"
     inkscape:window-x="-8"
     inkscape:window-y="-8"
     inkscape:window-maximized="1"
     inkscape:pagecheckerboard="true" />
  <defs
     id="defs1403" />
  <metadata
     id="metadata1406">
    <rdf:RDF>
      <cc:Work
         rdf:about="">
        <dc:format>image/svg+xml</dc:format>
        <dc:type
           rdf:resource="http://purl.org/dc/dcmitype/StillImage" />
        <dc:title />
      </cc:Work>
    </rdf:RDF>
  </metadata>
  <g
     id="layer1"
     inkscape:groupmode="layer"
     inkscape:label="Layer 1">
    <rect
       style="fill:#ffe6d5;stroke:#505050;stroke-width:0;stroke-linecap:butt;stroke-linejoin:round;stroke-miterlimit:4;stroke-dasharray:none;stroke-dashoffset:0;stroke-opacity:1"
       id="rect1965"
       width="3388.5715"
       height="1737.1428"
       x="-597.14288"
       y="-291.42856"
       ry="1.5118099" />
    <path
       style="fill:#ffc8a0;fill-opacity:0.18090455;stroke:#fffcfc;stroke-width:0;stroke-linecap:butt;stroke-linejoin:miter;stroke-miterlimit:4;stroke-dasharray:none;stroke-opacity:1"
       d="M -388.57142,485.71429 C -181.22028,499.84017 -293.72903,317.29363 60,277.14286 c 353.72902,-40.15077 917.85038,-4.26604 1237.1429,-34.28572 319.2925,-30.01968 699.8349,-275.248369 980,-291.428569 280.1651,-16.1802 527.9489,-41.07373 651.4285,114.28571 C 3052.051,221.07372 3071.8784,471.22385 2900,594.28571 2728.1216,717.34757 2424.1855,399.40466 2188.5714,394.28571 1952.9573,389.16676 1800.0374,342.53184 1520,368.57143 1239.9626,394.61102 913.7981,467.43302 520,502.85714 126.2019,538.28126 -602.56019,984.56347 -805.71428,805.71427 -1008.8684,626.86506 -820.39186,565.17659 -780,542.85714 c 40.39186,-22.31945 184.07744,-71.26873 391.42858,-57.14285 z"
       id="path2007"
       inkscape:connector-curvature="0"
       sodipodi:nodetypes="zzzzzzzzzzzz"
       inkscape:export-filename="C:\dev\bubble\Assets\Sprites\background1.png"
       inkscape:export-xdpi="147"
       inkscape:export-ydpi="147" />
    <path
       style="fill:#e9c6af;fill-opacity:0.21105526;stroke:none;stroke-width:1px;stroke-linecap:butt;stroke-linejoin:miter;stroke-opacity:1"
       d="M -665.71429,1068.5714 C -419.80915,931.72465 -96.23132,1086.8052 177.14286,1020 493.51958,942.68619 744.39472,651.32285 1068.5714,620 c 333.8793,-32.26035 717.94,19.18996 980.0001,228.57143 83.5265,66.73617 -92.8632,182.60747 139.9999,288.57147 311.491,141.7434 549.8928,-140.65335 725.7143,25.7142 45.8456,43.3804 60.2315,142.4515 17.1429,188.5715 -143.0756,153.1414 -426.7204,42.0974 -628.5715,-14.2857 -274.0805,-76.559 -472.4931,-328.6498 -739.9999,-425.71433 -180.8928,-65.63677 -378.067,-127.17429 -568.57149,-100 -273.23415,38.97518 -479.87987,281.93533 -742.85714,365.71433 -360.28278,114.7785 -919.55735,500.6252 -1120,180 -62.32864,-99.7 100.11545,-231.3955 202.85714,-288.5715 z"
       id="path2011"
       inkscape:connector-curvature="0"
       sodipodi:nodetypes="aaaasaaaaaaaa" />
  </g>
</svg>
