<?xml version="1.0" encoding="UTF-8" standalone="no"?>
<!-- Created with Inkscape (http://www.inkscape.org/) -->

<svg
   xmlns:dc="http://purl.org/dc/elements/1.1/"
   xmlns:cc="http://creativecommons.org/ns#"
   xmlns:rdf="http://www.w3.org/1999/02/22-rdf-syntax-ns#"
   xmlns:svg="http://www.w3.org/2000/svg"
   xmlns="http://www.w3.org/2000/svg"
   xmlns:sodipodi="http://sodipodi.sourceforge.net/DTD/sodipodi-0.dtd"
   xmlns:inkscape="http://www.inkscape.org/namespaces/inkscape"
   width="1920px"
   height="1080px"
   viewBox="0 0 1920 1080"
   version="1.1"
   id="SVGRoot"
   inkscape:export-filename="C:\dev\bubble\Assets\Sprites\background1.png"
   inkscape:export-xdpi="147"
   inkscape:export-ydpi="147"
   inkscape:version="0.92.2 (5c3e80d, 2017-08-06)"
   sodipodi:docname="bg1.svg">
  <sodipodi:namedview
     id="base"
     pagecolor="#ffffff"
     bordercolor="#666666"
     borderopacity="1.0"
     inkscape:pageopacity="0.0"
     inkscape:pageshadow="2"
     inkscape:zoom="0.35"
     inkscape:cx="872.43462"
     inkscape:cy="513.91949"
     inkscape:document-units="px"
     inkscape:current-layer="layer1"
     showgrid="false"
     inkscape:window-width="1920"
     inkscape:window-height="1028"
     inkscape:window-x="-8"
     inkscape:window-y="-8"
     inkscape:window-maximized="1"
     inkscape:pagecheckerboard="true" />
  <defs
     id="defs1403" />
  <metadata
     id="metadata1406">
    <rdf:RDF>
      <cc:Work
         rdf:about="">
        <dc:format>image/svg+xml</dc:format>
        <dc:type
           rdf:resource="http://purl.org/dc/dcmitype/StillImage" />
        <dc:title></dc:title>
      </cc:Work>
    </rdf:RDF>
  </metadata>
  <g
     id="layer1"
     inkscape:groupmode="layer"
     inkscape:label="Layer 1">
    <rect
       style="fill:#ffe6d5;stroke:#505050;stroke-width:0;stroke-linecap:butt;stroke-linejoin:round;stroke-miterlimit:4;stroke-dasharray:none;stroke-dashoffset:0;stroke-opacity:1"
       id="rect1965"
       width="3388.5715"
       height="1737.1428"
       x="-597.14288"
       y="-291.42856"
       ry="1.5118099" />
    <path
       style="fill:#ffc8a0;stroke:#fffcfc;stroke-width:0;stroke-linecap:butt;stroke-linejoin:miter;stroke-miterlimit:4;stroke-dasharray:none;stroke-opacity:1;fill-opacity:0.18090452"
       d="M -768.57142,548.57143 C -561.22028,562.69731 46.270971,191.57934 400,151.42857 c 353.72902,-40.15077 577.85038,121.44825 897.1429,91.42857 319.2925,-30.01968 699.8349,-275.248369 980,-291.428569 280.1651,-16.1802 527.9489,-41.07373 651.4285,114.28571 C 3052.051,221.07372 3071.8784,471.22385 2900,594.28571 2728.1216,717.34757 2424.1855,399.40466 2188.5714,394.28571 1952.9573,389.16676 1811.466,522.53184 1531.4286,548.57143 1251.3912,574.61102 913.7981,467.43302 520,502.85714 126.2019,538.28126 -602.56019,984.56347 -805.71428,805.71427 -1008.8684,626.86506 -820.39186,565.17659 -780,542.85714 c 40.39186,-22.31945 -195.92256,-8.41159 11.42858,5.71429 z"
       id="path2007"
       inkscape:connector-curvature="0"
       sodipodi:nodetypes="zzzzzzzzzzzz"
       inkscape:export-filename="C:\dev\bubble\Assets\Sprites\background1.png"
       inkscape:export-xdpi="147"
       inkscape:export-ydpi="147" />
    <path
       style="fill:#e9c6af;fill-opacity:0.21105528;stroke:none;stroke-width:1px;stroke-linecap:butt;stroke-linejoin:miter;stroke-opacity:1"
       d="M -665.71429,1068.5714 C -419.80915,931.72465 -93.133904,1098.4018 177.14286,1020 412.57172,951.70686 583.28828,726.56164 820,662.85714 c 295.2621,-79.46174 623.7979,-103.41323 917.1429,-17.14285 277.2331,81.532 446.8823,388.45151 720,482.85711 144.4244,49.9216 348.2403,-72.9095 457.1428,34.2857 44.9812,44.276 60.2315,142.4515 17.1429,188.5715 -143.0756,153.1414 -422.2669,22.6106 -628.5715,-14.2857 C 2083.7594,1297.9586 1883.1339,1188.7029 1671.4286,1120 1389.1721,1028.4017 1115.075,828.54047 820,860 c -215.79037,23.00657 -363.55608,245.9847 -568.57143,317.1429 -357.21874,123.9861 -919.55735,500.6252 -1120,180 -62.32864,-99.7 100.11545,-231.3955 202.85714,-288.5715 z"
       id="path2011"
       inkscape:connector-curvature="0"
       sodipodi:nodetypes="aaaaaaaaaaaaa" />
  </g>
</svg>
