<?xml version="1.0" encoding="UTF-8" standalone="no"?>
<!-- Created with Inkscape (http://www.inkscape.org/) -->

<svg
   xmlns:dc="http://purl.org/dc/elements/1.1/"
   xmlns:cc="http://creativecommons.org/ns#"
   xmlns:rdf="http://www.w3.org/1999/02/22-rdf-syntax-ns#"
   xmlns:svg="http://www.w3.org/2000/svg"
   xmlns="http://www.w3.org/2000/svg"
   xmlns:sodipodi="http://sodipodi.sourceforge.net/DTD/sodipodi-0.dtd"
   xmlns:inkscape="http://www.inkscape.org/namespaces/inkscape"
   width="210mm"
   height="297mm"
   viewBox="0 0 210 297"
   version="1.1"
   id="svg8"
   inkscape:version="0.92.2 (5c3e80d, 2017-08-06)"
   sodipodi:docname="clouds.svg">
  <defs
     id="defs2" />
  <sodipodi:namedview
     id="base"
     pagecolor="#ffffff"
     bordercolor="#666666"
     borderopacity="1.0"
     inkscape:pageopacity="0.0"
     inkscape:pageshadow="2"
     inkscape:zoom="0.49497475"
     inkscape:cx="153.69929"
     inkscape:cy="926.64825"
     inkscape:document-units="mm"
     inkscape:current-layer="layer1"
     showgrid="false"
     inkscape:pagecheckerboard="true"
     inkscape:measure-start="0,0"
     inkscape:measure-end="0,0"
     inkscape:window-width="1920"
     inkscape:window-height="1028"
     inkscape:window-x="-8"
     inkscape:window-y="-8"
     inkscape:window-maximized="1" />
  <metadata
     id="metadata5">
    <rdf:RDF>
      <cc:Work
         rdf:about="">
        <dc:format>image/svg+xml</dc:format>
        <dc:type
           rdf:resource="http://purl.org/dc/dcmitype/StillImage" />
        <dc:title></dc:title>
      </cc:Work>
    </rdf:RDF>
  </metadata>
  <g
     inkscape:label="Layer 1"
     inkscape:groupmode="layer"
     id="layer1">
    <path
       style="fill:#ffffff;stroke-width:0.99999994"
       d="m 226.95703,11.606584 c -22.20337,0.02259 -24.13521,56.082638 -35.20982,75.170481 -14.14272,-3.257076 -36.3327,0.773091 -51.51981,0.747489 -67.783864,3.6e-4 -114.161617,-6.234133 -114.160994,33.655136 0.04844,24.51082 21.217459,47.33447 56.222656,60.61719 -13.899431,8.50782 -21.847661,20.61573 -21.876953,33.32617 5.04e-4,24.8257 29.622865,44.95082 66.164061,44.95117 21.78936,-0.002 42.18053,-7.29196 54.52149,-19.49219 24.47425,12.52782 56.11707,19.46426 88.91992,19.49219 49.79806,-0.0236 95.45616,-15.90279 118.51758,-41.21875 13.34297,9.58617 95.19619,17.7867 113.45368,17.81222 C 741.88335,173.25956 461.70054,128.44521 442.24805,112.5918 442.24769,83.581713 432.93351,52.92168 400.29716,52.921596 388.57007,52.937033 359.97045,63.196487 350.24219,69.017578 336.11171,62.048135 319.72868,58.262075 302.94727,58.087891 292.63919,36.690627 250.86593,11.630888 226.95703,11.606584 Z"
       transform="scale(0.26458333)"
       id="path16"
       inkscape:connector-curvature="0"
       sodipodi:nodetypes="cccccccccccccccc"
       inkscape:export-xdpi="143"
       inkscape:export-ydpi="143" />
    <path
       style="fill:#ffffff;stroke-width:0.26458332"
       d="m 86.042956,79.421411 c -5.355547,0.0938 -10.405361,2.262118 -13.853419,5.948473 -3.033932,3.255706 -4.574677,7.42854 -4.308782,11.669572 -1.123574,0.09473 -2.237406,0.215443 -3.337779,0.361736 -2.48562,-3.873095 -9.472351,-6.488308 -17.348295,-6.493661 -10.111377,1.1e-5 -18.308184,4.248108 -18.307926,9.488309 0.0051,2.41076 1.780664,4.73011 4.966105,6.48694 -4.780433,0.79954 -8.16702,3.8703 -8.173145,7.41092 0.0022,3.88395 4.054239,7.1447 9.405111,7.56853 -1.085814,1.48686 -8.453125,6.87668 -8.458251,8.50557 0.0063,4.59 2.529791,3.83442 9.375066,5.69962 -45.8957509,1.26851 -12.779658,23.50899 -12.779658,23.50899 -1.63e-4,9.07795 34.508528,-3.72203 50.966915,-3.72194 9.217967,-0.008 17.910458,-2.36822 23.543265,-6.39289 3.264807,0.68767 6.686617,1.0414 10.132717,1.04748 17.63947,-3e-5 31.93896,-8.91497 31.93862,-19.91196 -0.0118,-4.68352 -2.67133,-9.21456 -7.51117,-12.79664 1.24216,-2.18284 1.89039,-4.56633 1.89859,-6.98097 1.1e-4,-9.0779 -8.8546,-16.43708 -19.7776,-16.437236 -3.30667,0.006 -6.55877,0.700823 -9.45886,2.021065 0.12258,-6.321184 -3.73367,-12.162967 -9.963213,-15.093135 -2.759716,-1.293773 -5.836677,-1.943246 -8.948291,-1.888773 z"
       id="path30"
       inkscape:connector-curvature="0"
       sodipodi:nodetypes="cccccccccccccccccccccc" />
    <path
       style="fill:#ffffff;stroke-width:0.26458332"
       d="m 76.715584,175.67138 c -6.419967,-0.0678 -12.634658,3.12206 -12.043047,9.19847 -13.832705,-8.75144 -38.006312,4.84847 -53.47943,3.11888 -9.4947687,4.74014 -1.000951,14.78514 8.385543,18.26379 -9.459136,4.85888 -8.033155,21.36032 0.820916,22.37029 8.000685,2.32716 22.441947,-5.13463 29.096858,-10.53121 6.923442,2.51833 20.939905,4.8404 27.743059,7.94838 14.267878,3.7427 19.108948,-2.43328 33.534937,-4.69446 7.2334,11.98918 24.04155,1.98753 28.53919,-5.29332 3.819,-5.58575 -6.6471,-10.53516 -11.41393,-12.57049 -6.23293,-2.65584 -12.88552,-4.27574 -19.55901,-5.38993 7.0077,-0.80665 11.81333,-10.5092 3.91819,-14.02501 -8.01635,-4.38952 -18.216234,-4.43339 -26.523008,-0.80096 -0.212751,-5.58716 -3.156633,-7.64482 -9.020268,-7.59443 z"
       id="path30-0"
       inkscape:connector-curvature="0"
       sodipodi:nodetypes="cccccccccccccc" />
  </g>
</svg>
