<?xml version="1.0" encoding="UTF-8" standalone="no"?>
<!-- Created with Inkscape (http://www.inkscape.org/) -->

<svg
   xmlns:dc="http://purl.org/dc/elements/1.1/"
   xmlns:cc="http://creativecommons.org/ns#"
   xmlns:rdf="http://www.w3.org/1999/02/22-rdf-syntax-ns#"
   xmlns:svg="http://www.w3.org/2000/svg"
   xmlns="http://www.w3.org/2000/svg"
   xmlns:sodipodi="http://sodipodi.sourceforge.net/DTD/sodipodi-0.dtd"
   xmlns:inkscape="http://www.inkscape.org/namespaces/inkscape"
   width="1920px"
   height="1080px"
   viewBox="0 0 1920 1080"
   version="1.1"
   id="SVGRoot"
   inkscape:export-filename="C:\dev\bubble\Assets\Sprites\clouds_layer_1.png"
   inkscape:export-xdpi="96"
   inkscape:export-ydpi="96"
   inkscape:version="0.92.2 (5c3e80d, 2017-08-06)"
   sodipodi:docname="clouds_layer.svg">
  <sodipodi:namedview
     id="base"
     pagecolor="#ffffff"
     bordercolor="#666666"
     borderopacity="1.0"
     inkscape:pageopacity="0.0"
     inkscape:pageshadow="2"
     inkscape:zoom="0.49497475"
     inkscape:cx="1061.7749"
     inkscape:cy="473.25733"
     inkscape:document-units="px"
     inkscape:current-layer="layer1"
     showgrid="false"
     inkscape:window-width="1920"
     inkscape:window-height="1028"
     inkscape:window-x="-8"
     inkscape:window-y="-8"
     inkscape:window-maximized="1"
     inkscape:pagecheckerboard="true" />
  <defs
     id="defs1403" />
  <metadata
     id="metadata1406">
    <rdf:RDF>
      <cc:Work
         rdf:about="">
        <dc:format>image/svg+xml</dc:format>
        <dc:type
           rdf:resource="http://purl.org/dc/dcmitype/StillImage" />
        <dc:title />
      </cc:Work>
    </rdf:RDF>
  </metadata>
  <g
     id="layer1"
     inkscape:groupmode="layer"
     inkscape:label="Layer 1">
    <path
       style="fill:#ffffff;stroke-width:0.43397939"
       d="m 155.97138,38.547669 c -9.35328,0.0101 -10.16708,25.073878 -14.83232,33.607818 -5.95769,-1.4562 -15.30533,0.34564 -21.70298,0.33419 -28.554305,1.7e-4 -48.091175,-2.7872 -48.090915,15.04681 0.0204,10.958503 8.93797,21.162673 23.68409,27.101223 -5.85521,3.80374 -9.20344,9.21704 -9.21578,14.89973 2.1e-4,11.09927 12.47879,20.09697 27.871945,20.09713 9.17889,-9e-4 17.76877,-3.26015 22.96747,-8.71473 10.3099,5.60104 23.6396,8.70224 37.45797,8.71473 20.9777,-0.0105 40.21141,-7.10995 49.92615,-18.42841 5.6208,4.28586 40.10189,7.95222 47.79296,7.96363 101.05679,-28.34901 -16.97166,-48.384973 -25.16612,-55.472843 -1.6e-4,-12.97006 -3.9238,-26.67779 -17.67203,-26.67783 -4.9401,0.007 -16.98784,4.59378 -21.08592,7.19632 -5.95254,-3.11596 -12.85398,-4.80866 -19.92323,-4.88653 -4.34233,-9.56647 -21.93954,-20.770374 -32.01129,-20.781238 z"
       id="path16"
       inkscape:connector-curvature="0"
       sodipodi:nodetypes="cccccccccccccccc"
       inkscape:export-xdpi="143"
       inkscape:export-ydpi="143" />
    <path
       inkscape:export-ydpi="143"
       inkscape:export-xdpi="143"
       sodipodi:nodetypes="cccccccccccccccc"
       inkscape:connector-curvature="0"
       id="path838"
       d="m 1689.3829,915.36008 c -9.3532,0.0101 -10.167,25.07388 -14.8323,33.60782 -5.9577,-1.4562 -15.3053,0.34564 -21.703,0.33419 -28.5543,1.7e-4 -48.0911,-2.7872 -48.0909,15.04681 0.02,10.9585 8.938,21.16267 23.6841,27.10122 -5.8552,3.80374 -9.2034,9.21708 -9.2158,14.89968 2e-4,11.0993 12.4788,20.097 27.872,20.0972 9.1789,-9e-4 17.7688,-3.2602 22.9675,-8.7148 10.3099,5.6011 23.6396,8.7023 37.4579,8.7148 20.9777,-0.01 40.2114,-7.11 49.9262,-18.4284 5.6208,4.2858 40.1019,7.9522 47.7929,7.9636 101.0568,-28.34901 -16.9716,-48.38497 -25.1661,-55.47284 -10e-5,-12.97006 -3.9238,-26.67779 -17.672,-26.67783 -4.9401,0.007 -16.9879,4.59378 -21.0859,7.19632 -5.9526,-3.11596 -12.854,-4.80866 -19.9233,-4.88653 -4.3423,-9.56647 -21.9395,-20.77038 -32.0113,-20.78124 z"
       style="fill:#ffffff;stroke-width:0.43397939" />
    <path
       style="fill:#ffffff;stroke-width:0.43397939"
       d="m 1655.0377,398.16198 c -9.3532,0.0101 -10.167,25.07388 -14.8323,33.60782 -5.9577,-1.4562 -15.3053,0.34564 -21.703,0.33419 -28.5543,1.7e-4 -48.0911,-2.7872 -48.0909,15.04681 0.02,10.9585 8.938,21.16267 23.6841,27.10122 -5.8552,3.80374 -9.2034,9.21708 -9.2158,14.89968 2e-4,11.0993 12.4788,20.097 27.872,20.0972 9.1789,-9e-4 17.7688,-3.2602 22.9675,-8.7148 10.3099,5.6011 23.6396,8.7023 37.4579,8.7148 20.9777,-0.01 40.2114,-7.11 49.9262,-18.4284 5.6208,4.2858 40.1019,7.9522 47.7929,7.9636 101.0568,-28.34901 -16.9716,-48.38497 -25.1661,-55.47284 -10e-5,-12.97006 -3.9238,-26.67779 -17.672,-26.67783 -4.9401,0.007 -16.9879,4.59378 -21.0859,7.19632 -5.9526,-3.11596 -12.854,-4.80866 -19.9233,-4.88653 -4.3423,-9.56647 -21.9395,-20.77038 -32.0113,-20.78124 z"
       id="path840"
       inkscape:connector-curvature="0"
       sodipodi:nodetypes="cccccccccccccccc"
       inkscape:export-xdpi="143"
       inkscape:export-ydpi="143" />
    <path
       inkscape:export-ydpi="143"
       inkscape:export-xdpi="143"
       sodipodi:nodetypes="cccccccccccccccc"
       inkscape:connector-curvature="0"
       id="path842"
       d="m 594.37753,676.96408 c -9.3532,0.0101 -10.167,25.07388 -14.8323,33.60782 -5.9577,-1.4562 -15.3053,0.34564 -21.703,0.33419 -28.5543,1.7e-4 -48.0911,-2.7872 -48.0909,15.04681 0.02,10.9585 8.938,21.16267 23.6841,27.10122 -5.8552,3.80374 -9.2034,9.21708 -9.2158,14.89968 2e-4,11.0993 12.4788,20.097 27.872,20.0972 9.1789,-9e-4 17.7688,-3.2602 22.9675,-8.7148 10.3099,5.6011 23.6396,8.7023 37.4579,8.7148 20.9777,-0.01 40.2114,-7.11 49.9262,-18.4284 5.6208,4.2858 40.1019,7.9522 47.7929,7.9636 101.0568,-28.34901 -16.9716,-48.38497 -25.1661,-55.47284 -10e-5,-12.97006 -3.9238,-26.67779 -17.672,-26.67783 -4.9401,0.007 -16.9879,4.59378 -21.0859,7.19632 -5.9526,-3.11596 -12.854,-4.80866 -19.9233,-4.88653 -4.3423,-9.56647 -21.9395,-20.77038 -32.0113,-20.78124 z"
       style="fill:#ffffff;stroke-width:0.43397939" />
    <path
       style="fill:#ffffff;stroke-width:0.52122325"
       d="m 941.89217,919.40069 c 11.41047,-0.0119 12.40327,-29.64747 18.09471,-39.73804 7.26812,1.72182 18.67175,-0.40869 26.47665,-0.39515 34.83487,-2e-4 58.66887,3.2956 58.66867,-17.79142 -0.024,-12.95738 -10.904,-25.02284 -28.8935,-32.04461 7.1431,-4.49756 11.2277,-10.89831 11.2428,-17.61745 -2e-4,-13.12386 -15.2235,-23.76278 -34.00251,-23.76302 -11.19783,10e-4 -21.6771,3.85488 -28.01927,10.30442 -12.5776,-6.62277 -28.83921,-10.28964 -45.69689,-10.30442 -25.59181,0.0118 -49.05603,8.4069 -60.90763,21.78983 -6.85711,-5.06755 -48.92244,-9.40272 -58.3051,-9.4162 -123.28458,33.52 20.70455,57.21061 30.70146,65.59134 1.2e-4,15.33586 4.78685,31.54395 21.55901,31.54399 6.0267,-0.008 20.72445,-5.4317 25.72382,-8.50896 7.26189,3.68433 15.68128,5.68578 24.30549,5.77786 5.2974,11.31143 26.76517,24.55899 39.05229,24.57183 z"
       id="path844"
       inkscape:connector-curvature="0"
       sodipodi:nodetypes="cccccccccccccccc"
       inkscape:export-xdpi="143"
       inkscape:export-ydpi="143" />
    <path
       inkscape:export-ydpi="143"
       inkscape:export-xdpi="143"
       sodipodi:nodetypes="cccccccccccccccc"
       inkscape:connector-curvature="0"
       id="path846"
       d="m 1358.075,222.39543 c 11.4105,-0.0119 12.4033,-29.64747 18.0947,-39.73804 7.2681,1.72182 18.6718,-0.40869 26.4767,-0.39515 34.8348,-2e-4 58.6688,3.2956 58.6686,-17.79142 -0.024,-12.95738 -10.904,-25.02284 -28.8935,-32.04461 7.1431,-4.49756 11.2277,-10.89831 11.2428,-17.61745 -2e-4,-13.12386 -15.2235,-23.762776 -34.0025,-23.763016 -11.1978,0.001 -21.6771,3.85488 -28.0192,10.304416 -12.5776,-6.622766 -28.8392,-10.289636 -45.6969,-10.304416 -25.5918,0.0118 -49.0561,8.4069 -60.9077,21.789826 -6.8571,-5.06755 -48.9224,-9.40272 -58.3051,-9.4162 -123.2845,33.52 20.7046,57.21061 30.7015,65.59134 10e-5,15.33586 4.7869,31.54395 21.559,31.54399 6.0267,-0.008 20.7245,-5.4317 25.7238,-8.50896 7.2619,3.68433 15.6813,5.68578 24.3055,5.77786 5.2974,11.31143 26.7652,24.55899 39.0523,24.57183 z"
       style="fill:#ffffff;stroke-width:0.52122325" />
    <path
       style="fill:#ffffff;stroke-width:0.47246954"
       d="m 369.36684,480.99448 c 10.15684,-0.011 11.04057,-27.36741 16.10666,-36.68196 6.46956,1.5894 16.62035,-0.37726 23.56773,-0.36476 31.00754,-1.8e-4 52.22293,3.04215 52.22275,-16.42316 -0.0214,-11.96088 -9.70599,-23.09844 -25.719,-29.5802 6.35829,-4.15167 9.99412,-10.06017 10.00756,-16.26257 -1.8e-4,-12.11456 -13.55091,-21.93529 -30.26668,-21.93551 -9.96751,9.2e-4 -19.29546,3.55842 -24.94076,9.51195 -11.19572,-6.11344 -25.67067,-9.49831 -40.67623,-9.51195 -22.78006,0.0109 -43.66636,7.76036 -54.21584,20.11407 -6.10372,-4.67783 -43.54735,-8.6796 -51.89918,-8.69204 -109.73937,30.94212 18.4298,52.81079 27.32836,60.547 8e-5,14.15644 4.26096,29.11804 19.19033,29.11808 5.36455,-0.007 18.44752,-5.01397 22.89756,-7.85457 6.46404,3.40098 13.95841,5.24851 21.63508,5.33351 4.71538,10.44151 23.82453,22.67026 34.76166,22.68211 z"
       id="path848"
       inkscape:connector-curvature="0"
       sodipodi:nodetypes="cccccccccccccccc"
       inkscape:export-xdpi="143"
       inkscape:export-ydpi="143" />
    <path
       inkscape:export-ydpi="143"
       inkscape:export-xdpi="143"
       sodipodi:nodetypes="cccccccccccccccc"
       inkscape:connector-curvature="0"
       id="path850"
       d="m 213.80335,986.07075 c 10.15684,-0.011 11.04057,-27.36741 16.10666,-36.68196 6.46956,1.5894 16.62035,-0.37726 23.56773,-0.36476 31.00754,-1.8e-4 52.22293,3.04215 52.22275,-16.42316 -0.0214,-11.96088 -9.70599,-23.09844 -25.719,-29.5802 6.35829,-4.15167 9.99412,-10.06017 10.00756,-16.26257 -1.8e-4,-12.11456 -13.55091,-21.93529 -30.26668,-21.93551 -9.96751,9.2e-4 -19.29546,3.55842 -24.94076,9.51195 -11.19572,-6.11344 -25.67067,-9.49831 -40.67623,-9.51195 -22.78006,0.0109 -43.66636,7.76036 -54.21584,20.11407 -6.10372,-4.67783 -43.547352,-8.6796 -51.899182,-8.69204 -109.73937,30.94212 18.429802,52.81079 27.328362,60.547 8e-5,14.15644 4.26096,29.11804 19.19033,29.11808 5.36455,-0.007 18.44752,-5.01397 22.89756,-7.85457 6.46404,3.40098 13.95841,5.24851 21.63508,5.33351 4.71538,10.44151 23.82453,22.67026 34.76166,22.68211 z"
       style="fill:#ffffff;stroke-width:0.47246954" />
    <path
       style="fill:#ffffff;stroke-width:0.47246954"
       d="m 763.32633,234.51726 c 10.15684,-0.011 11.04057,-27.36741 16.10666,-36.68196 6.46956,1.5894 16.62035,-0.37726 23.56773,-0.36476 31.00754,-1.8e-4 52.22293,3.04215 52.22275,-16.42316 -0.0214,-11.96088 -9.70599,-23.09844 -25.719,-29.5802 6.35829,-4.15167 9.99412,-10.06017 10.00756,-16.26257 -1.8e-4,-12.11456 -13.55091,-21.93529 -30.26668,-21.93551 -9.96751,9.2e-4 -19.29546,3.55842 -24.94076,9.51195 -11.19572,-6.11344 -25.67067,-9.49831 -40.67623,-9.51195 -22.78006,0.0109 -43.66636,7.76036 -54.21584,20.11407 -6.10372,-4.67783 -43.54735,-8.6796 -51.89918,-8.69204 -109.73937,30.94212 18.4298,52.81079 27.32836,60.547 8e-5,14.15644 4.26096,29.11804 19.19033,29.11808 5.36455,-0.007 18.44752,-5.01397 22.89756,-7.85457 6.46404,3.40098 13.95841,5.24851 21.63508,5.33351 4.71538,10.44151 23.82453,22.67026 34.76166,22.68211 z"
       id="path852"
       inkscape:connector-curvature="0"
       sodipodi:nodetypes="cccccccccccccccc"
       inkscape:export-xdpi="143"
       inkscape:export-ydpi="143" />
    <path
       style="fill:#ffffff;stroke-width:0.44674024"
       d="m 1034.0436,223.35116 c -9.2642,0.15459 -17.9995,3.72818 -23.9641,9.80362 -5.2482,5.3657 -7.9134,12.24292 -7.4535,19.23252 -1.9436,0.15613 -3.87029,0.35507 -5.77375,0.59617 -4.29973,-6.38321 -16.38558,-10.69331 -30.00967,-10.70214 -17.49098,2e-5 -31.67008,7.00127 -31.66963,15.6376 0.009,3.97315 3.08025,7.79565 8.59053,10.69106 -8.26935,1.31772 -14.12758,6.37861 -14.13818,12.21387 0.004,6.40111 7.01316,11.77512 16.26927,12.47363 -1.87828,2.45048 -14.62249,11.33339 -14.63136,14.01795 0.0109,7.56474 4.37612,6.31947 16.2173,9.39349 -79.39196,2.09062 -22.10667,38.74495 -22.10667,38.74495 -2.8e-4,14.96129 59.69398,-6.13424 88.16426,-6.13409 15.9455,-0.0132 30.9821,-3.90304 40.7259,-10.53607 5.6476,1.13335 11.5667,1.71632 17.5279,1.72635 30.5133,-5e-5 55.249,-14.69268 55.2484,-32.81672 -0.021,-7.71887 -4.6209,-15.18643 -12.993,-21.09003 2.1487,-3.59752 3.27,-7.52572 3.2842,-11.50527 2e-4,-14.9612 -15.317,-27.0898 -34.2119,-27.09006 -5.72,0.01 -11.3456,1.15502 -16.3623,3.3309 0.2121,-10.41788 -6.4586,-20.04567 -17.2346,-24.87486 -4.7739,-2.13225 -10.0965,-3.20265 -15.4791,-3.11287 z"
       id="path30"
       inkscape:connector-curvature="0"
       sodipodi:nodetypes="cccccccccccccccccccccc" />
    <path
       sodipodi:nodetypes="cccccccccccccccccccccc"
       inkscape:connector-curvature="0"
       id="path862"
       d="m 153.19058,605.18882 c -9.2642,0.15459 -17.9995,3.72818 -23.9641,9.80362 -5.2482,5.3657 -7.9134,12.24292 -7.4535,19.23252 -1.9436,0.15613 -3.87029,0.35507 -5.77375,0.59617 -4.29973,-6.38321 -16.385579,-10.69331 -30.009669,-10.70214 -17.49098,2e-5 -31.67008,7.00127 -31.66963,15.6376 0.009,3.97315 3.08025,7.79565 8.59053,10.69106 -8.26935,1.31772 -14.12758,6.37861 -14.13818,12.21387 0.004,6.40111 7.01316,11.77512 16.26927,12.47363 -1.87828,2.45048 -14.62249,11.33339 -14.63136,14.01795 0.0109,7.56474 4.37612,6.31947 16.2173,9.39349 -79.39196,2.09062 -22.10667,38.74495 -22.10667,38.74495 -2.8e-4,14.96129 59.693979,-6.13424 88.164259,-6.13409 15.9455,-0.0132 30.9821,-3.90304 40.7259,-10.53607 5.6476,1.13335 11.5667,1.71632 17.5279,1.72635 30.5133,-5e-5 55.249,-14.69268 55.2484,-32.81672 -0.021,-7.71887 -4.6209,-15.18643 -12.993,-21.09003 2.1487,-3.59752 3.27,-7.52572 3.2842,-11.50527 2e-4,-14.9612 -15.317,-27.0898 -34.2119,-27.09006 -5.72,0.01 -11.3456,1.15502 -16.3623,3.3309 0.2121,-10.41788 -6.4586,-20.04567 -17.2346,-24.87486 -4.7739,-2.13225 -10.0965,-3.20265 -15.4791,-3.11287 z"
       style="fill:#ffffff;stroke-width:0.44674024" />
    <path
       style="fill:#ffffff;stroke-width:0.48479453"
       d="m 1729.513,245.56355 c 9.9037,-0.17029 19.242,-4.10687 25.6184,-10.79941 5.6105,-5.91072 8.4597,-13.48648 7.9681,-21.18604 2.0777,-0.17199 4.1374,-0.39114 6.1723,-0.65673 4.5966,7.03158 17.5167,11.77947 32.0813,11.7892 18.6985,-2e-5 33.8565,-7.71242 33.856,-17.22597 -0.011,-4.37672 -3.2929,-8.58749 -9.1836,-11.77699 8.8403,-1.45157 15.1029,-7.02651 15.1142,-13.45448 0,-7.0513 -7.4974,-12.97117 -17.3924,-13.74063 2.0079,-2.69938 15.6319,-12.48457 15.6414,-15.44181 -0.012,-8.33311 -4.6782,-6.96135 -17.3368,-10.34761 84.8727,-2.30298 23.6328,-42.68043 23.6328,-42.68043 2e-4,-16.480958 -63.8149,6.75732 -94.2507,6.75715 -17.0462,0.0145 -33.1209,4.29949 -43.5373,11.60626 -6.0375,-1.24847 -12.3652,-1.89065 -18.738,-1.9017 -32.6197,6e-5 -59.063,16.18507 -59.0624,36.15004 0.022,8.5029 4.9399,16.72897 13.89,23.23222 -2.2971,3.96294 -3.4958,8.29014 -3.511,12.67391 -2e-4,16.48086 16.3744,29.84141 36.5737,29.8417 6.1149,-0.011 12.1289,-1.27234 17.4919,-3.66923 -0.2267,11.47606 6.9045,22.08178 18.4244,27.40149 5.1034,2.34883 10.7935,3.52796 16.5477,3.42906 z"
       id="path864"
       inkscape:connector-curvature="0"
       sodipodi:nodetypes="cccccccccccccccccccccc" />
    <path
       sodipodi:nodetypes="cccccccccccccccccccccc"
       inkscape:connector-curvature="0"
       id="path866"
       d="m 1341.6145,950.65007 c 9.9037,-0.1703 19.242,-4.10692 25.6184,-10.79946 5.6105,-5.91072 8.4597,-13.48648 7.9681,-21.18604 2.0777,-0.17199 4.1374,-0.39114 6.1723,-0.65673 4.5966,7.03158 17.5167,11.77947 32.0813,11.7892 18.6985,-2e-5 33.8565,-7.71242 33.856,-17.22597 -0.011,-4.37672 -3.2929,-8.58749 -9.1836,-11.77699 8.8403,-1.45157 15.1029,-7.02651 15.1142,-13.45448 0,-7.0513 -7.4974,-12.97117 -17.3924,-13.74063 2.0079,-2.69938 15.6319,-12.48457 15.6414,-15.44181 -0.012,-8.33311 -4.6782,-6.96135 -17.3368,-10.34761 84.8727,-2.30298 23.6328,-42.68043 23.6328,-42.68043 2e-4,-16.48095 -63.8149,6.75732 -94.2507,6.75715 -17.0462,0.0145 -33.1209,4.29949 -43.5373,11.60626 -6.0375,-1.24847 -12.3652,-1.89065 -18.738,-1.9017 -32.6197,6e-5 -59.063,16.18507 -59.0624,36.15004 0.022,8.5029 4.9399,16.72897 13.89,23.23222 -2.2971,3.96294 -3.4958,8.29014 -3.511,12.67391 -2e-4,16.48086 16.3744,29.84141 36.5737,29.8417 6.1149,-0.011 12.1289,-1.27234 17.4919,-3.66923 -0.2267,11.47606 6.9045,22.08178 18.4244,27.40149 5.1034,2.34881 10.7935,3.52801 16.5477,3.42911 z"
       style="fill:#ffffff;stroke-width:0.48479453" />
    <path
       style="fill:#ffffff;stroke-width:0.5025754"
       d="m 1055.9106,449.78774 c -13.0576,-0.12028 -25.6977,5.53845 -24.4943,16.31785 -28.1345,-15.52483 -77.30124,8.60106 -108.77205,5.53281 -19.31143,8.40889 -2.03584,26.22847 17.05537,32.39951 -19.23896,8.61953 -16.33865,37.89267 1.66967,39.68433 16.27261,4.12832 45.64473,-9.1087 59.18021,-18.6821 14.0816,4.46745 42.5897,8.58675 56.4267,14.10023 29.0194,6.63945 38.8657,-4.31658 68.2068,-8.32786 14.712,21.2685 48.8981,3.52583 58.0459,-9.39021 7.7675,-9.90898 -13.5195,-18.68911 -23.2148,-22.29974 -12.6772,-4.71139 -26.2079,-7.58505 -39.7811,-9.5616 14.253,-1.43098 24.0271,-18.64305 7.9692,-24.88001 -16.3045,-7.7869 -37.0501,-7.86472 -53.9453,-1.42089 -0.4327,-9.91148 -6.4202,-13.56171 -18.3463,-13.47232 z"
       id="path30-0"
       inkscape:connector-curvature="0"
       sodipodi:nodetypes="cccccccccccccc" />
    <path
       sodipodi:nodetypes="cccccccccccccc"
       inkscape:connector-curvature="0"
       id="path874"
       d="m 1615.5351,647.77764 c -13.0576,-0.12028 -25.6977,5.53845 -24.4943,16.31785 -28.1345,-15.52483 -77.3012,8.60106 -108.772,5.53281 -19.3115,8.40889 -2.0359,26.22847 17.0553,32.39951 -19.2389,8.61953 -16.3386,37.89267 1.6697,39.68433 16.2726,4.12832 45.6447,-9.1087 59.1802,-18.6821 14.0816,4.46745 42.5897,8.58675 56.4267,14.10023 29.0194,6.63945 38.8657,-4.31658 68.2068,-8.32786 14.712,21.2685 48.8981,3.52583 58.0459,-9.39021 7.7675,-9.90898 -13.5195,-18.68911 -23.2148,-22.29974 -12.6772,-4.71139 -26.2079,-7.58505 -39.7811,-9.5616 14.253,-1.43098 24.0271,-18.64305 7.9692,-24.88001 -16.3045,-7.7869 -37.0501,-7.86472 -53.9453,-1.42089 -0.4327,-9.91148 -6.4202,-13.56171 -18.3463,-13.47232 z"
       style="fill:#ffffff;stroke-width:0.5025754" />
    <path
       style="fill:#ffffff;stroke-width:0.5025754"
       d="m 564.97645,924.55944 c -13.0576,-0.12028 -25.6977,5.53845 -24.4943,16.31785 -28.1345,-15.52483 -77.3012,8.60106 -108.772,5.53281 -19.3115,8.40889 -2.0359,26.22847 17.0553,32.39951 -19.2389,8.61953 -16.3386,37.89269 1.6697,39.68429 16.2726,4.1284 45.6447,-9.1087 59.1802,-18.68206 14.0816,4.46746 42.5897,8.58676 56.4267,14.10026 29.0194,6.6394 38.8657,-4.3166 68.2068,-8.3279 14.712,21.2685 48.8981,3.5258 58.0459,-9.3902 7.7675,-9.90898 -13.5195,-18.68911 -23.2148,-22.29974 -12.6772,-4.71139 -26.2079,-7.58505 -39.7811,-9.5616 14.253,-1.43098 24.0271,-18.64305 7.9692,-24.88001 -16.3045,-7.7869 -37.0501,-7.86472 -53.9453,-1.42089 -0.4327,-9.91148 -6.4202,-13.56171 -18.3463,-13.47232 z"
       id="path876"
       inkscape:connector-curvature="0"
       sodipodi:nodetypes="cccccccccccccc" />
    <path
       sodipodi:nodetypes="cccccccccccccc"
       inkscape:connector-curvature="0"
       id="path878"
       d="m 718.51964,350.79279 c -13.0576,-0.12028 -25.6977,5.53845 -24.4943,16.31785 -28.1345,-15.52483 -77.3012,8.60106 -108.772,5.53281 -19.3115,8.40889 -2.0359,26.22847 17.0553,32.39951 -19.2389,8.61953 -16.3386,37.89269 1.6697,39.68429 16.2726,4.1284 45.6447,-9.1087 59.1802,-18.68206 14.0816,4.46746 42.5897,8.58676 56.4267,14.10026 29.0194,6.6394 38.8657,-4.3166 68.2068,-8.3279 14.712,21.2685 48.8981,3.5258 58.0459,-9.3902 7.7675,-9.90898 -13.5195,-18.68911 -23.2148,-22.29974 -12.6772,-4.71139 -26.2079,-7.58505 -39.7811,-9.5616 14.253,-1.43098 24.0271,-18.64305 7.9692,-24.88001 -16.3045,-7.7869 -37.0501,-7.86472 -53.9453,-1.42089 -0.4327,-9.91148 -6.4202,-13.56171 -18.3463,-13.47232 z"
       style="fill:#ffffff;stroke-width:0.5025754" />
    <path
       style="fill:#ffffff;stroke-width:0.5025754"
       d="m 718.51964,350.79279 c -13.0576,-0.12028 -25.6977,5.53845 -24.4943,16.31785 -28.1345,-15.52483 -77.3012,8.60106 -108.772,5.53281 -19.3115,8.40889 -2.0359,26.22847 17.0553,32.39951 -19.2389,8.61953 -16.3386,37.89269 1.6697,39.68429 16.2726,4.1284 45.6447,-9.1087 59.1802,-18.68206 14.0816,4.46746 42.5897,8.58676 56.4267,14.10026 29.0194,6.6394 38.8657,-4.3166 68.2068,-8.3279 14.712,21.2685 48.8981,3.5258 58.0459,-9.3902 7.7675,-9.90898 -13.5195,-18.68911 -23.2148,-22.29974 -12.6772,-4.71139 -26.2079,-7.58505 -39.7811,-9.5616 14.253,-1.43098 24.0271,-18.64305 7.9692,-24.88001 -16.3045,-7.7869 -37.0501,-7.86472 -53.9453,-1.42089 -0.4327,-9.91148 -6.4202,-13.56171 -18.3463,-13.47232 z"
       id="path880"
       inkscape:connector-curvature="0"
       sodipodi:nodetypes="cccccccccccccc" />
  </g>
</svg>
