<?xml version="1.0" encoding="UTF-8" standalone="no"?>
<!-- Created with Inkscape (http://www.inkscape.org/) -->

<svg
   xmlns:dc="http://purl.org/dc/elements/1.1/"
   xmlns:cc="http://creativecommons.org/ns#"
   xmlns:rdf="http://www.w3.org/1999/02/22-rdf-syntax-ns#"
   xmlns:svg="http://www.w3.org/2000/svg"
   xmlns="http://www.w3.org/2000/svg"
   xmlns:sodipodi="http://sodipodi.sourceforge.net/DTD/sodipodi-0.dtd"
   xmlns:inkscape="http://www.inkscape.org/namespaces/inkscape"
   width="210mm"
   height="297mm"
   viewBox="0 0 210 297"
   version="1.1"
   id="svg8"
   inkscape:version="0.92.2 (5c3e80d, 2017-08-06)"
   sodipodi:docname="hammer.svg"
   inkscape:export-filename="C:\dev\bubble\Assets\Sprites\hammer.png"
   inkscape:export-xdpi="230"
   inkscape:export-ydpi="230">
  <defs
     id="defs2" />
  <sodipodi:namedview
     id="base"
     pagecolor="#ffffff"
     bordercolor="#666666"
     borderopacity="1.0"
     inkscape:pageopacity="0.0"
     inkscape:pageshadow="2"
     inkscape:zoom="0.98994949"
     inkscape:cx="852.75999"
     inkscape:cy="623.76524"
     inkscape:document-units="mm"
     inkscape:current-layer="layer1"
     showgrid="false"
     inkscape:pagecheckerboard="true"
     inkscape:measure-start="0,0"
     inkscape:measure-end="0,0"
     inkscape:window-width="1920"
     inkscape:window-height="1028"
     inkscape:window-x="-8"
     inkscape:window-y="-8"
     inkscape:window-maximized="1" />
  <metadata
     id="metadata5">
    <rdf:RDF>
      <cc:Work
         rdf:about="">
        <dc:format>image/svg+xml</dc:format>
        <dc:type
           rdf:resource="http://purl.org/dc/dcmitype/StillImage" />
        <dc:title></dc:title>
      </cc:Work>
    </rdf:RDF>
  </metadata>
  <g
     inkscape:groupmode="layer"
     id="layer2"
     inkscape:label="Layer 2"
     style="display:inline">
    <g
       inkscape:label="Layer 1"
       inkscape:groupmode="layer"
       id="layer1"
       style="display:inline">
      <path
         sodipodi:type="star"
         style="fill:#b3b3b3;stroke-width:0.26458332"
         id="path3801"
         sodipodi:sides="7"
         sodipodi:cx="10.958049"
         sodipodi:cy="100.55687"
         sodipodi:r1="11.25392"
         sodipodi:r2="5.514421"
         sodipodi:arg1="-3.0702852"
         sodipodi:arg2="-2.6214862"
         inkscape:flatsided="false"
         inkscape:rounded="0.05"
         inkscape:randomized="0"
         d="m -0.2672712,99.755061 c 0.0239589,-0.335424 6.2729701,-1.646896 6.4400914,-1.938707 0.1671213,-0.291812 -1.8639481,-6.345311 -1.5867648,-6.535712 0.2771833,-0.190402 5.1987279,3.877582 5.5310736,3.826302 0.332346,-0.05128 3.798811,-5.41353 4.120494,-5.315533 0.321683,0.098 0.209738,6.482162 0.457045,6.710028 0.247307,0.227865 6.600987,-0.405251 6.724936,-0.09265 0.123949,0.312602 -4.937189,4.20554 -4.961148,4.54097 -0.02396,0.33542 4.432486,4.90819 4.265365,5.2 -0.167121,0.29181 -6.366312,-1.23794 -6.643495,-1.04754 -0.277184,0.1904 -1.073768,6.52567 -1.406114,6.57695 -0.332346,0.0513 -3.0014718,-5.74923 -3.3231549,-5.84723 -0.321683,-0.098 -5.7714529,3.22918 -6.0187599,3.00132 -0.2473071,-0.22787 2.6235379,-5.93123 2.499589,-6.24383 -0.1239489,-0.3126 -6.12311628,-2.49894 -6.0991574,-2.834369 z"
         inkscape:transform-center-x="0.81347913"
         inkscape:transform-center-y="-0.24149755" />
      <path
         inkscape:transform-center-y="-0.24149755"
         inkscape:transform-center-x="0.81347913"
         d="m -3.2072355,111.24766 c 0.023959,-0.33542 6.2729701,-1.6469 6.4400914,-1.93871 0.1671213,-0.29181 -1.8639481,-6.34531 -1.5867648,-6.53571 0.2771833,-0.1904 5.1987279,3.87758 5.5310736,3.8263 0.3323458,-0.0513 3.7988113,-5.41353 4.1204943,-5.31553 0.321683,0.098 0.209737,6.48216 0.457044,6.71003 0.247307,0.22786 6.600988,-0.40525 6.724937,-0.0926 0.123949,0.3126 -4.937189,4.20554 -4.961148,4.54097 -0.02396,0.33542 4.432486,4.90819 4.265365,5.2 -0.167122,0.29181 -6.366312,-1.23794 -6.643496,-1.04754 -0.277183,0.1904 -1.073767,6.52567 -1.4061132,6.57695 -0.3323458,0.0513 -3.0014719,-5.74923 -3.323155,-5.84723 -0.321683,-0.098 -5.77145287,3.22918 -6.01875992,3.00132 -0.24730706,-0.22787 2.62353792,-5.93123 2.49958902,-6.24383 -0.1239489,-0.3126 -6.1231163,-2.49895 -6.0991574,-2.83437 z"
         inkscape:randomized="0"
         inkscape:rounded="0.05"
         inkscape:flatsided="false"
         sodipodi:arg2="-2.6214862"
         sodipodi:arg1="-3.0702852"
         sodipodi:r2="5.514421"
         sodipodi:r1="11.25392"
         sodipodi:cy="112.04947"
         sodipodi:cx="8.018085"
         sodipodi:sides="7"
         id="path3803"
         style="fill:#b3b3b3;stroke-width:0.26458332"
         sodipodi:type="star" />
      <path
         sodipodi:type="star"
         style="fill:#b3b3b3;stroke-width:0.26458332"
         id="path3805"
         sodipodi:sides="7"
         sodipodi:cx="11.492588"
         sodipodi:cy="127.81836"
         sodipodi:r1="11.25392"
         sodipodi:r2="5.514421"
         sodipodi:arg1="-3.0702852"
         sodipodi:arg2="-2.6214862"
         inkscape:flatsided="false"
         inkscape:rounded="0.05"
         inkscape:randomized="0"
         d="m 0.26726802,127.01655 c 0.0239589,-0.33542 6.27297018,-1.64689 6.44009148,-1.93871 0.1671212,-0.29181 -1.8639482,-6.34531 -1.5867649,-6.53571 0.2771833,-0.1904 5.1987284,3.87758 5.5310734,3.8263 0.332346,-0.0513 3.798811,-5.41353 4.120494,-5.31553 0.321683,0.098 0.209738,6.48216 0.457045,6.71003 0.247307,0.22786 6.600988,-0.40525 6.724937,-0.0926 0.123948,0.3126 -4.93719,4.20554 -4.961149,4.54097 -0.02396,0.33542 4.432487,4.90819 4.265365,5.2 -0.167121,0.29181 -6.366312,-1.23794 -6.643495,-1.04754 -0.277183,0.1904 -1.073768,6.52567 -1.406114,6.57695 -0.332345,0.0513 -3.001472,-5.74923 -3.3231547,-5.84723 -0.321683,-0.098 -5.7714528,3.22918 -6.0187599,3.00132 -0.2473071,-0.22787 2.6235379,-5.93123 2.499589,-6.24383 -0.1239489,-0.3126 -6.12311626,-2.49894 -6.09915738,-2.83437 z"
         inkscape:transform-center-x="0.81347913"
         inkscape:transform-center-y="-0.24149755" />
      <path
         inkscape:transform-center-y="-0.68847545"
         inkscape:transform-center-x="0.47703658"
         d="m 36.348655,195.1703 c 0.02396,-0.33543 6.27297,-1.6469 6.440091,-1.93871 0.167121,-0.29181 -1.863948,-6.34531 -1.586765,-6.53571 0.277183,-0.1904 5.198728,3.87758 5.531074,3.8263 0.332346,-0.0513 3.798811,-5.41353 4.120494,-5.31553 0.321683,0.098 0.209737,6.48216 0.457044,6.71003 0.247307,0.22786 6.600988,-0.40525 6.724937,-0.0927 0.123949,0.3126 -4.937189,4.20554 -4.961148,4.54096 -0.02396,0.33543 4.432486,4.90819 4.265365,5.20001 -0.167121,0.29181 -6.366312,-1.23794 -6.643496,-1.04754 -0.277183,0.1904 -1.073767,6.52566 -1.406113,6.57694 -0.332346,0.0513 -3.001472,-5.74922 -3.323155,-5.84722 -0.321683,-0.098 -5.771453,3.22918 -6.01876,3.00132 -0.247307,-0.22787 2.623538,-5.93123 2.499589,-6.24383 -0.123949,-0.31261 -6.123116,-2.49895 -6.099157,-2.83437 z"
         inkscape:randomized="0"
         inkscape:rounded="0.05"
         inkscape:flatsided="false"
         sodipodi:arg2="-2.6214862"
         sodipodi:arg1="-3.0702852"
         sodipodi:r2="5.514421"
         sodipodi:r1="11.25392"
         sodipodi:cy="195.97211"
         sodipodi:cx="47.573975"
         sodipodi:sides="7"
         id="path3807"
         style="fill:#b3b3b3;stroke-width:0.26458332"
         sodipodi:type="star"
         transform="rotate(45.371793,98.999541,131.51201)" />
      <path
         transform="rotate(68.343225,74.24,161.32824)"
         sodipodi:type="star"
         style="fill:#b3b3b3;stroke-width:0.26458332"
         id="path3809"
         sodipodi:sides="7"
         sodipodi:cx="47.573975"
         sodipodi:cy="195.97211"
         sodipodi:r1="11.25392"
         sodipodi:r2="5.514421"
         sodipodi:arg1="-3.0702852"
         sodipodi:arg2="-2.6214862"
         inkscape:flatsided="false"
         inkscape:rounded="0.05"
         inkscape:randomized="0"
         d="m 36.348655,195.1703 c 0.02396,-0.33543 6.27297,-1.6469 6.440091,-1.93871 0.167121,-0.29181 -1.863948,-6.34531 -1.586765,-6.53571 0.277183,-0.1904 5.198728,3.87758 5.531074,3.8263 0.332346,-0.0513 3.798811,-5.41353 4.120494,-5.31553 0.321683,0.098 0.209737,6.48216 0.457044,6.71003 0.247307,0.22786 6.600988,-0.40525 6.724937,-0.0927 0.123949,0.3126 -4.937189,4.20554 -4.961148,4.54096 -0.02396,0.33543 4.432486,4.90819 4.265365,5.20001 -0.167121,0.29181 -6.366312,-1.23794 -6.643496,-1.04754 -0.277183,0.1904 -1.073767,6.52566 -1.406113,6.57694 -0.332346,0.0513 -3.001472,-5.74922 -3.323155,-5.84722 -0.321683,-0.098 -5.771453,3.22918 -6.01876,3.00132 -0.247307,-0.22787 2.623538,-5.93123 2.499589,-6.24383 -0.123949,-0.31261 -6.123116,-2.49895 -6.099157,-2.83437 z"
         inkscape:transform-center-x="-0.58385135"
         inkscape:transform-center-y="-0.35169169" />
      <path
         inkscape:transform-center-y="-0.35169169"
         inkscape:transform-center-x="-0.58385135"
         d="m 36.348655,195.1703 c 0.02396,-0.33543 6.27297,-1.6469 6.440091,-1.93871 0.167121,-0.29181 -1.863948,-6.34531 -1.586765,-6.53571 0.277183,-0.1904 5.198728,3.87758 5.531074,3.8263 0.332346,-0.0513 3.798811,-5.41353 4.120494,-5.31553 0.321683,0.098 0.209737,6.48216 0.457044,6.71003 0.247307,0.22786 6.600988,-0.40525 6.724937,-0.0927 0.123949,0.3126 -4.937189,4.20554 -4.961148,4.54096 -0.02396,0.33543 4.432486,4.90819 4.265365,5.20001 -0.167121,0.29181 -6.366312,-1.23794 -6.643496,-1.04754 -0.277183,0.1904 -1.073767,6.52566 -1.406113,6.57694 -0.332346,0.0513 -3.001472,-5.74922 -3.323155,-5.84722 -0.321683,-0.098 -5.771453,3.22918 -6.01876,3.00132 -0.247307,-0.22787 2.623538,-5.93123 2.499589,-6.24383 -0.123949,-0.31261 -6.123116,-2.49895 -6.099157,-2.83437 z"
         inkscape:randomized="0"
         inkscape:rounded="0.05"
         inkscape:flatsided="false"
         sodipodi:arg2="-2.6214862"
         sodipodi:arg1="-3.0702852"
         sodipodi:r2="5.514421"
         sodipodi:r1="11.25392"
         sodipodi:cy="195.97211"
         sodipodi:cx="47.573975"
         sodipodi:sides="7"
         id="path3811"
         style="fill:#b3b3b3;stroke-width:0.26458332"
         sodipodi:type="star"
         transform="rotate(68.343225,75.128325,172.80306)" />
      <path
         transform="rotate(106.94474,66.813908,182.17657)"
         sodipodi:type="star"
         style="fill:#b3b3b3;stroke-width:0.26458332"
         id="path3813"
         sodipodi:sides="7"
         sodipodi:cx="47.573975"
         sodipodi:cy="195.97211"
         sodipodi:r1="11.25392"
         sodipodi:r2="5.514421"
         sodipodi:arg1="-3.0702852"
         sodipodi:arg2="-2.6214862"
         inkscape:flatsided="false"
         inkscape:rounded="0.05"
         inkscape:randomized="0"
         d="m 36.348655,195.1703 c 0.02396,-0.33543 6.27297,-1.6469 6.440091,-1.93871 0.167121,-0.29181 -1.863948,-6.34531 -1.586765,-6.53571 0.277183,-0.1904 5.198728,3.87758 5.531074,3.8263 0.332346,-0.0513 3.798811,-5.41353 4.120494,-5.31553 0.321683,0.098 0.209737,6.48216 0.457044,6.71003 0.247307,0.22786 6.600988,-0.40525 6.724937,-0.0927 0.123949,0.3126 -4.937189,4.20554 -4.961148,4.54096 -0.02396,0.33543 4.432486,4.90819 4.265365,5.20001 -0.167121,0.29181 -6.366312,-1.23794 -6.643496,-1.04754 -0.277183,0.1904 -1.073767,6.52566 -1.406113,6.57694 -0.332346,0.0513 -3.001472,-5.74922 -3.323155,-5.84722 -0.321683,-0.098 -5.771453,3.22918 -6.01876,3.00132 -0.247307,-0.22787 2.623538,-5.93123 2.499589,-6.24383 -0.123949,-0.31261 -6.123116,-2.49895 -6.099157,-2.83437 z"
         inkscape:transform-center-x="-0.32338953"
         inkscape:transform-center-y="0.063349265" />
      <path
         inkscape:transform-center-y="-0.47414396"
         inkscape:transform-center-x="-0.69237431"
         d="m 36.348655,195.1703 c 0.02396,-0.33543 6.27297,-1.6469 6.440091,-1.93871 0.167121,-0.29181 -1.863948,-6.34531 -1.586765,-6.53571 0.277183,-0.1904 5.198728,3.87758 5.531074,3.8263 0.332346,-0.0513 3.798811,-5.41353 4.120494,-5.31553 0.321683,0.098 0.209737,6.48216 0.457044,6.71003 0.247307,0.22786 6.600988,-0.40525 6.724937,-0.0927 0.123949,0.3126 -4.937189,4.20554 -4.961148,4.54096 -0.02396,0.33543 4.432486,4.90819 4.265365,5.20001 -0.167121,0.29181 -6.366312,-1.23794 -6.643496,-1.04754 -0.277183,0.1904 -1.073767,6.52566 -1.406113,6.57694 -0.332346,0.0513 -3.001472,-5.74922 -3.323155,-5.84722 -0.321683,-0.098 -5.771453,3.22918 -6.01876,3.00132 -0.247307,-0.22787 2.623538,-5.93123 2.499589,-6.24383 -0.123949,-0.31261 -6.123116,-2.49895 -6.099157,-2.83437 z"
         inkscape:randomized="0"
         inkscape:rounded="0.05"
         inkscape:flatsided="false"
         sodipodi:arg2="-2.6214862"
         sodipodi:arg1="-3.0702852"
         sodipodi:r2="5.514421"
         sodipodi:r1="11.25392"
         sodipodi:cy="195.97211"
         sodipodi:cx="47.573975"
         sodipodi:sides="7"
         id="path3815"
         style="fill:#b3b3b3;stroke-width:0.26458332"
         sodipodi:type="star"
         transform="rotate(135.28204,68.712196,183.65907)" />
      <path
         transform="rotate(173.38481,62.28684,178.98179)"
         sodipodi:type="star"
         style="fill:#b3b3b3;stroke-width:0.26458332"
         id="path3817"
         sodipodi:sides="7"
         sodipodi:cx="47.573975"
         sodipodi:cy="195.97211"
         sodipodi:r1="11.25392"
         sodipodi:r2="5.514421"
         sodipodi:arg1="-3.0702852"
         sodipodi:arg2="-2.6214862"
         inkscape:flatsided="false"
         inkscape:rounded="0.05"
         inkscape:randomized="0"
         d="m 36.348655,195.1703 c 0.02396,-0.33543 6.27297,-1.6469 6.440091,-1.93871 0.167121,-0.29181 -1.863948,-6.34531 -1.586765,-6.53571 0.277183,-0.1904 5.198728,3.87758 5.531074,3.8263 0.332346,-0.0513 3.798811,-5.41353 4.120494,-5.31553 0.321683,0.098 0.209737,6.48216 0.457044,6.71003 0.247307,0.22786 6.600988,-0.40525 6.724937,-0.0927 0.123949,0.3126 -4.937189,4.20554 -4.961148,4.54096 -0.02396,0.33543 4.432486,4.90819 4.265365,5.20001 -0.167121,0.29181 -6.366312,-1.23794 -6.643496,-1.04754 -0.277183,0.1904 -1.073767,6.52566 -1.406113,6.57694 -0.332346,0.0513 -3.001472,-5.74922 -3.323155,-5.84722 -0.321683,-0.098 -5.771453,3.22918 -6.01876,3.00132 -0.247307,-0.22787 2.623538,-5.93123 2.499589,-6.24383 -0.123949,-0.31261 -6.123116,-2.49895 -6.099157,-2.83437 z"
         inkscape:transform-center-x="-0.92577751"
         inkscape:transform-center-y="0.47700767" />
      <path
         inkscape:transform-center-y="0.47700767"
         inkscape:transform-center-x="-0.92577751"
         d="m 36.348655,195.1703 c 0.02396,-0.33543 6.27297,-1.6469 6.440091,-1.93871 0.167121,-0.29181 -1.863948,-6.34531 -1.586765,-6.53571 0.277183,-0.1904 5.198728,3.87758 5.531074,3.8263 0.332346,-0.0513 3.798811,-5.41353 4.120494,-5.31553 0.321683,0.098 0.209737,6.48216 0.457044,6.71003 0.247307,0.22786 6.600988,-0.40525 6.724937,-0.0927 0.123949,0.3126 -4.937189,4.20554 -4.961148,4.54096 -0.02396,0.33543 4.432486,4.90819 4.265365,5.20001 -0.167121,0.29181 -6.366312,-1.23794 -6.643496,-1.04754 -0.277183,0.1904 -1.073767,6.52566 -1.406113,6.57694 -0.332346,0.0513 -3.001472,-5.74922 -3.323155,-5.84722 -0.321683,-0.098 -5.771453,3.22918 -6.01876,3.00132 -0.247307,-0.22787 2.623538,-5.93123 2.499589,-6.24383 -0.123949,-0.31261 -6.123116,-2.49895 -6.099157,-2.83437 z"
         inkscape:randomized="0"
         inkscape:rounded="0.05"
         inkscape:flatsided="false"
         sodipodi:arg2="-2.6214862"
         sodipodi:arg1="-3.0702852"
         sodipodi:r2="5.514421"
         sodipodi:r1="11.25392"
         sodipodi:cy="195.97211"
         sodipodi:cx="47.573975"
         sodipodi:sides="7"
         id="path3819"
         style="fill:#b3b3b3;stroke-width:0.26458332"
         sodipodi:type="star"
         transform="rotate(173.38481,68.51127,178.00071)" />
      <path
         transform="rotate(144.54957,81.423077,182.62265)"
         sodipodi:type="star"
         style="fill:#b3b3b3;stroke-width:0.26458332"
         id="path3821"
         sodipodi:sides="7"
         sodipodi:cx="47.573975"
         sodipodi:cy="195.97211"
         sodipodi:r1="11.25392"
         sodipodi:r2="5.514421"
         sodipodi:arg1="-3.0702852"
         sodipodi:arg2="-2.6214862"
         inkscape:flatsided="false"
         inkscape:rounded="0.05"
         inkscape:randomized="0"
         d="m 36.348655,195.1703 c 0.02396,-0.33543 6.27297,-1.6469 6.440091,-1.93871 0.167121,-0.29181 -1.863948,-6.34531 -1.586765,-6.53571 0.277183,-0.1904 5.198728,3.87758 5.531074,3.8263 0.332346,-0.0513 3.798811,-5.41353 4.120494,-5.31553 0.321683,0.098 0.209737,6.48216 0.457044,6.71003 0.247307,0.22786 6.600988,-0.40525 6.724937,-0.0927 0.123949,0.3126 -4.937189,4.20554 -4.961148,4.54096 -0.02396,0.33543 4.432486,4.90819 4.265365,5.20001 -0.167121,0.29181 -6.366312,-1.23794 -6.643496,-1.04754 -0.277183,0.1904 -1.073767,6.52566 -1.406113,6.57694 -0.332346,0.0513 -3.001472,-5.74922 -3.323155,-5.84722 -0.321683,-0.098 -5.771453,3.22918 -6.01876,3.00132 -0.247307,-0.22787 2.623538,-5.93123 2.499589,-6.24383 -0.123949,-0.31261 -6.123116,-2.49895 -6.099157,-2.83437 z"
         inkscape:transform-center-x="-0.28247064"
         inkscape:transform-center-y="-0.15516204" />
      <path
         inkscape:transform-center-y="-0.15516204"
         inkscape:transform-center-x="-0.28247064"
         d="m 36.348655,195.1703 c 0.02396,-0.33543 6.27297,-1.6469 6.440091,-1.93871 0.167121,-0.29181 -1.863948,-6.34531 -1.586765,-6.53571 0.277183,-0.1904 5.198728,3.87758 5.531074,3.8263 0.332346,-0.0513 3.798811,-5.41353 4.120494,-5.31553 0.321683,0.098 0.209737,6.48216 0.457044,6.71003 0.247307,0.22786 6.600988,-0.40525 6.724937,-0.0927 0.123949,0.3126 -4.937189,4.20554 -4.961148,4.54096 -0.02396,0.33543 4.432486,4.90819 4.265365,5.20001 -0.167121,0.29181 -6.366312,-1.23794 -6.643496,-1.04754 -0.277183,0.1904 -1.073767,6.52566 -1.406113,6.57694 -0.332346,0.0513 -3.001472,-5.74922 -3.323155,-5.84722 -0.321683,-0.098 -5.771453,3.22918 -6.01876,3.00132 -0.247307,-0.22787 2.623538,-5.93123 2.499589,-6.24383 -0.123949,-0.31261 -6.123116,-2.49895 -6.099157,-2.83437 z"
         inkscape:randomized="0"
         inkscape:rounded="0.05"
         inkscape:flatsided="false"
         sodipodi:arg2="-2.6214862"
         sodipodi:arg1="-3.0702852"
         sodipodi:r2="5.514421"
         sodipodi:r1="11.25392"
         sodipodi:cy="195.97211"
         sodipodi:cx="47.573975"
         sodipodi:sides="7"
         id="path3823"
         style="fill:#b3b3b3;stroke-width:0.26458332"
         sodipodi:type="star"
         transform="rotate(144.54957,89.017026,179.60025)" />
      <path
         transform="rotate(102.67142,110.81945,189.66083)"
         sodipodi:type="star"
         style="fill:#b3b3b3;stroke-width:0.26458332"
         id="path3825"
         sodipodi:sides="7"
         sodipodi:cx="47.573975"
         sodipodi:cy="195.97211"
         sodipodi:r1="11.25392"
         sodipodi:r2="5.514421"
         sodipodi:arg1="-3.0702852"
         sodipodi:arg2="-2.6214862"
         inkscape:flatsided="false"
         inkscape:rounded="0.05"
         inkscape:randomized="0"
         d="m 36.348655,195.1703 c 0.02396,-0.33543 6.27297,-1.6469 6.440091,-1.93871 0.167121,-0.29181 -1.863948,-6.34531 -1.586765,-6.53571 0.277183,-0.1904 5.198728,3.87758 5.531074,3.8263 0.332346,-0.0513 3.798811,-5.41353 4.120494,-5.31553 0.321683,0.098 0.209737,6.48216 0.457044,6.71003 0.247307,0.22786 6.600988,-0.40525 6.724937,-0.0927 0.123949,0.3126 -4.937189,4.20554 -4.961148,4.54096 -0.02396,0.33543 4.432486,4.90819 4.265365,5.20001 -0.167121,0.29181 -6.366312,-1.23794 -6.643496,-1.04754 -0.277183,0.1904 -1.073767,6.52566 -1.406113,6.57694 -0.332346,0.0513 -3.001472,-5.74922 -3.323155,-5.84722 -0.321683,-0.098 -5.771453,3.22918 -6.01876,3.00132 -0.247307,-0.22787 2.623538,-5.93123 2.499589,-6.24383 -0.123949,-0.31261 -6.123116,-2.49895 -6.099157,-2.83437 z"
         inkscape:transform-center-x="-0.11532899"
         inkscape:transform-center-y="-0.1602907" />
      <path
         inkscape:transform-center-y="-0.32186734"
         inkscape:transform-center-x="-0.54384847"
         d="m 36.348655,195.1703 c 0.02396,-0.33543 6.27297,-1.6469 6.440091,-1.93871 0.167121,-0.29181 -1.863948,-6.34531 -1.586765,-6.53571 0.277183,-0.1904 5.198728,3.87758 5.531074,3.8263 0.332346,-0.0513 3.798811,-5.41353 4.120494,-5.31553 0.321683,0.098 0.209737,6.48216 0.457044,6.71003 0.247307,0.22786 6.600988,-0.40525 6.724937,-0.0927 0.123949,0.3126 -4.937189,4.20554 -4.961148,4.54096 -0.02396,0.33543 4.432486,4.90819 4.265365,5.20001 -0.167121,0.29181 -6.366312,-1.23794 -6.643496,-1.04754 -0.277183,0.1904 -1.073767,6.52566 -1.406113,6.57694 -0.332346,0.0513 -3.001472,-5.74922 -3.323155,-5.84722 -0.321683,-0.098 -5.771453,3.22918 -6.01876,3.00132 -0.247307,-0.22787 2.623538,-5.93123 2.499589,-6.24383 -0.123949,-0.31261 -6.123116,-2.49895 -6.099157,-2.83437 z"
         inkscape:randomized="0"
         inkscape:rounded="0.05"
         inkscape:flatsided="false"
         sodipodi:arg2="-2.6214862"
         sodipodi:arg1="-3.0702852"
         sodipodi:r2="5.514421"
         sodipodi:r1="11.25392"
         sodipodi:cy="195.97211"
         sodipodi:cx="47.573975"
         sodipodi:sides="7"
         id="path3827"
         style="fill:#b3b3b3;stroke-width:0.26458332"
         sodipodi:type="star"
         transform="rotate(67.587311,144.25445,209.74481)" />
      <path
         transform="rotate(67.587311,154.36371,198.93136)"
         sodipodi:type="star"
         style="fill:#b3b3b3;stroke-width:0.26458332"
         id="path3829"
         sodipodi:sides="7"
         sodipodi:cx="47.573975"
         sodipodi:cy="195.97211"
         sodipodi:r1="11.25392"
         sodipodi:r2="5.514421"
         sodipodi:arg1="-3.0702852"
         sodipodi:arg2="-2.6214862"
         inkscape:flatsided="false"
         inkscape:rounded="0.05"
         inkscape:randomized="0"
         d="m 36.348655,195.1703 c 0.02396,-0.33543 6.27297,-1.6469 6.440091,-1.93871 0.167121,-0.29181 -1.863948,-6.34531 -1.586765,-6.53571 0.277183,-0.1904 5.198728,3.87758 5.531074,3.8263 0.332346,-0.0513 3.798811,-5.41353 4.120494,-5.31553 0.321683,0.098 0.209737,6.48216 0.457044,6.71003 0.247307,0.22786 6.600988,-0.40525 6.724937,-0.0927 0.123949,0.3126 -4.937189,4.20554 -4.961148,4.54096 -0.02396,0.33543 4.432486,4.90819 4.265365,5.20001 -0.167121,0.29181 -6.366312,-1.23794 -6.643496,-1.04754 -0.277183,0.1904 -1.073767,6.52566 -1.406113,6.57694 -0.332346,0.0513 -3.001472,-5.74922 -3.323155,-5.84722 -0.321683,-0.098 -5.771453,3.22918 -6.01876,3.00132 -0.247307,-0.22787 2.623538,-5.93123 2.499589,-6.24383 -0.123949,-0.31261 -6.123116,-2.49895 -6.099157,-2.83437 z"
         inkscape:transform-center-x="-0.54384847"
         inkscape:transform-center-y="-0.32186734" />
      <path
         inkscape:transform-center-y="-1.0469463"
         inkscape:transform-center-x="0.20005697"
         d="m 36.348655,195.1703 c 0.02396,-0.33543 6.27297,-1.6469 6.440091,-1.93871 0.167121,-0.29181 -1.863948,-6.34531 -1.586765,-6.53571 0.277183,-0.1904 5.198728,3.87758 5.531074,3.8263 0.332346,-0.0513 3.798811,-5.41353 4.120494,-5.31553 0.321683,0.098 0.209737,6.48216 0.457044,6.71003 0.247307,0.22786 6.600988,-0.40525 6.724937,-0.0927 0.123949,0.3126 -4.937189,4.20554 -4.961148,4.54096 -0.02396,0.33543 4.432486,4.90819 4.265365,5.20001 -0.167121,0.29181 -6.366312,-1.23794 -6.643496,-1.04754 -0.277183,0.1904 -1.073767,6.52566 -1.406113,6.57694 -0.332346,0.0513 -3.001472,-5.74922 -3.323155,-5.84722 -0.321683,-0.098 -5.771453,3.22918 -6.01876,3.00132 -0.247307,-0.22787 2.623538,-5.93123 2.499589,-6.24383 -0.123949,-0.31261 -6.123116,-2.49895 -6.099157,-2.83437 z"
         inkscape:randomized="0"
         inkscape:rounded="0.05"
         inkscape:flatsided="false"
         sodipodi:arg2="-2.6214862"
         sodipodi:arg1="-3.0702852"
         sodipodi:r2="5.514421"
         sodipodi:r1="11.25392"
         sodipodi:cy="195.97211"
         sodipodi:cx="47.573975"
         sodipodi:sides="7"
         id="path3831"
         style="fill:#b3b3b3;stroke-width:0.26458332"
         sodipodi:type="star"
         transform="rotate(36.920846,221.51704,233.6823)" />
      <path
         transform="rotate(36.920846,172.35428,119.73207)"
         sodipodi:type="star"
         style="fill:#b3b3b3;stroke-width:0.26458332"
         id="path3833"
         sodipodi:sides="7"
         sodipodi:cx="47.573975"
         sodipodi:cy="195.97211"
         sodipodi:r1="11.25392"
         sodipodi:r2="5.514421"
         sodipodi:arg1="-3.0702852"
         sodipodi:arg2="-2.6214862"
         inkscape:flatsided="false"
         inkscape:rounded="0.05"
         inkscape:randomized="0"
         d="m 36.348655,195.1703 c 0.02396,-0.33543 6.27297,-1.6469 6.440091,-1.93871 0.167121,-0.29181 -1.863948,-6.34531 -1.586765,-6.53571 0.277183,-0.1904 5.198728,3.87758 5.531074,3.8263 0.332346,-0.0513 3.798811,-5.41353 4.120494,-5.31553 0.321683,0.098 0.209737,6.48216 0.457044,6.71003 0.247307,0.22786 6.600988,-0.40525 6.724937,-0.0927 0.123949,0.3126 -4.937189,4.20554 -4.961148,4.54096 -0.02396,0.33543 4.432486,4.90819 4.265365,5.20001 -0.167121,0.29181 -6.366312,-1.23794 -6.643496,-1.04754 -0.277183,0.1904 -1.073767,6.52566 -1.406113,6.57694 -0.332346,0.0513 -3.001472,-5.74922 -3.323155,-5.84722 -0.321683,-0.098 -5.771453,3.22918 -6.01876,3.00132 -0.247307,-0.22787 2.623538,-5.93123 2.499589,-6.24383 -0.123949,-0.31261 -6.123116,-2.49895 -6.099157,-2.83437 z"
         inkscape:transform-center-x="0.20005697"
         inkscape:transform-center-y="-1.0469463" />
      <path
         style="fill:#ffffff;stroke-width:0.99999994"
         d="m 774.78711,162.875 c 27.41021,74.947 21.35315,332.48038 0,386.88867 -29.15435,74.28591 133.00492,68.41576 91.92383,0 -28.42422,-47.33722 -53.67803,-311.26718 0,-386.88867 46.19161,-65.074633 -109.23637,-47.33722 -91.92383,0 z"
         transform="scale(0.26458333)"
         id="rect3915"
         inkscape:connector-curvature="0"
         sodipodi:nodetypes="sssss"
         inkscape:export-filename="C:\dev\bubble\Assets\Sprites\hammer.png"
         inkscape:export-xdpi="250.57712"
         inkscape:export-ydpi="250.57712" />
      <path
         sodipodi:type="star"
         style="fill:#ececec;stroke-width:0.26458332"
         id="path3920"
         sodipodi:sides="5"
         sodipodi:cx="181.99554"
         sodipodi:cy="133.14732"
         sodipodi:r1="19.121449"
         sodipodi:r2="17.227831"
         sodipodi:arg1="0.82034896"
         sodipodi:arg2="1.4486675"
         inkscape:flatsided="true"
         inkscape:rounded="0.05"
         inkscape:randomized="0"
         d="m 195.03572,147.13244 c -0.82202,0.76648 -21.32819,3.28341 -22.31118,2.73847 -0.98298,-0.54494 -9.71347,-19.26969 -9.49897,-20.37296 0.21451,-1.10327 15.32494,-15.19273 16.4405,-15.32965 1.11555,-0.13692 19.1848,9.88007 19.65975,10.89872 0.47495,1.01864 -3.46807,21.29894 -4.2901,22.06542 z"
         inkscape:transform-center-x="-0.32040509"
         inkscape:transform-center-y="0.22570115"
         transform="matrix(0.53439761,0,0,0.70524968,80.729755,36.25956)"
         inkscape:export-filename="C:\dev\bubble\Assets\Sprites\hammer.png"
         inkscape:export-xdpi="250.57712"
         inkscape:export-ydpi="250.57712" />
      <path
         transform="matrix(0.53439761,0,0,0.66790124,78.839874,56.600935)"
         inkscape:transform-center-y="0.21374893"
         inkscape:transform-center-x="-0.32040509"
         d="m 195.03572,147.13244 c -0.82202,0.76648 -21.32819,3.28341 -22.31118,2.73847 -0.98298,-0.54494 -9.71347,-19.26969 -9.49897,-20.37296 0.21451,-1.10327 15.32494,-15.19273 16.4405,-15.32965 1.11555,-0.13692 19.1848,9.88007 19.65975,10.89872 0.47495,1.01864 -3.46807,21.29894 -4.2901,22.06542 z"
         inkscape:randomized="0"
         inkscape:rounded="0.05"
         inkscape:flatsided="true"
         sodipodi:arg2="1.4486675"
         sodipodi:arg1="0.82034896"
         sodipodi:r2="17.227831"
         sodipodi:r1="19.121449"
         sodipodi:cy="133.14732"
         sodipodi:cx="181.99554"
         sodipodi:sides="5"
         id="path3924"
         style="fill:#ececec;stroke-width:0.26458332"
         sodipodi:type="star"
         inkscape:export-filename="C:\dev\bubble\Assets\Sprites\hammer.png"
         inkscape:export-xdpi="250.57712"
         inkscape:export-ydpi="250.57712" />
      <path
         sodipodi:type="star"
         style="fill:#ececec;stroke-width:0.26458332"
         id="path3926"
         sodipodi:sides="5"
         sodipodi:cx="181.99554"
         sodipodi:cy="133.14732"
         sodipodi:r1="19.121449"
         sodipodi:r2="17.227831"
         sodipodi:arg1="0.82034896"
         sodipodi:arg2="1.4486675"
         inkscape:flatsided="true"
         inkscape:rounded="0.05"
         inkscape:randomized="0"
         d="m 195.03572,147.13244 c -0.82202,0.76648 -21.32819,3.28341 -22.31118,2.73847 -0.98298,-0.54494 -9.71347,-19.26969 -9.49897,-20.37296 0.21451,-1.10327 15.32494,-15.19273 16.4405,-15.32965 1.11555,-0.13692 19.1848,9.88007 19.65975,10.89872 0.47495,1.01864 -3.46807,21.29894 -4.2901,22.06542 z"
         inkscape:transform-center-x="-0.32040509"
         inkscape:transform-center-y="0.21374893"
         transform="matrix(0.53439761,0,0,0.66790124,78.083922,72.475935)"
         inkscape:export-filename="C:\dev\bubble\Assets\Sprites\hammer.png"
         inkscape:export-xdpi="250.57712"
         inkscape:export-ydpi="250.57712" />
      <path
         transform="matrix(0.44922232,-0.16004569,0.20288221,0.56945748,65.429384,132.57293)"
         inkscape:transform-center-y="-0.99647301"
         inkscape:transform-center-x="-0.6376497"
         d="m 195.03572,147.13244 c -0.82202,0.76648 -21.32819,3.28341 -22.31118,2.73847 -0.98298,-0.54494 -9.71347,-19.26969 -9.49897,-20.37296 0.21451,-1.10327 15.32494,-15.19273 16.4405,-15.32965 1.11555,-0.13692 19.1848,9.88007 19.65975,10.89872 0.47495,1.01864 -3.46807,21.29894 -4.2901,22.06542 z"
         inkscape:randomized="0"
         inkscape:rounded="0.05"
         inkscape:flatsided="true"
         sodipodi:arg2="1.4486675"
         sodipodi:arg1="0.82034896"
         sodipodi:r2="17.227831"
         sodipodi:r1="19.121449"
         sodipodi:cy="133.14732"
         sodipodi:cx="181.99554"
         sodipodi:sides="5"
         id="path3928"
         style="fill:#ececec;stroke-width:0.26458332"
         sodipodi:type="star"
         inkscape:export-filename="C:\dev\bubble\Assets\Sprites\hammer.png"
         inkscape:export-xdpi="250.57712"
         inkscape:export-ydpi="250.57712" />
      <path
         sodipodi:type="star"
         style="fill:#ececec;stroke-width:0.26458332"
         id="path3930"
         sodipodi:sides="5"
         sodipodi:cx="181.99554"
         sodipodi:cy="133.14732"
         sodipodi:r1="19.121449"
         sodipodi:r2="17.227831"
         sodipodi:arg1="0.82034896"
         sodipodi:arg2="1.4486675"
         inkscape:flatsided="true"
         inkscape:rounded="0.05"
         inkscape:randomized="0"
         d="m 195.03572,147.13244 c -0.82202,0.76648 -21.32819,3.28341 -22.31118,2.73847 -0.98298,-0.54494 -9.71347,-19.26969 -9.49897,-20.37296 0.21451,-1.10327 15.32494,-15.19273 16.4405,-15.32965 1.11555,-0.13692 19.1848,9.88007 19.65975,10.89872 0.47495,1.01864 -3.46807,21.29894 -4.2901,22.06542 z"
         inkscape:transform-center-x="-0.32040509"
         inkscape:transform-center-y="0.23287367"
         transform="matrix(0.53439761,0,0,0.72765875,160.59344,28.741639)"
         inkscape:export-filename="C:\dev\bubble\Assets\Sprites\hammer.png"
         inkscape:export-xdpi="250.57712"
         inkscape:export-ydpi="250.57712" />
      <path
         transform="matrix(0.53439761,0,0,0.66790124,164.07351,52.821173)"
         inkscape:transform-center-y="0.21374893"
         inkscape:transform-center-x="-0.32040509"
         d="m 195.03572,147.13244 c -0.82202,0.76648 -21.32819,3.28341 -22.31118,2.73847 -0.98298,-0.54494 -9.71347,-19.26969 -9.49897,-20.37296 0.21451,-1.10327 15.32494,-15.19273 16.4405,-15.32965 1.11555,-0.13692 19.1848,9.88007 19.65975,10.89872 0.47495,1.01864 -3.46807,21.29894 -4.2901,22.06542 z"
         inkscape:randomized="0"
         inkscape:rounded="0.05"
         inkscape:flatsided="true"
         sodipodi:arg2="1.4486675"
         sodipodi:arg1="0.82034896"
         sodipodi:r2="17.227831"
         sodipodi:r1="19.121449"
         sodipodi:cy="133.14732"
         sodipodi:cx="181.99554"
         sodipodi:sides="5"
         id="path3932"
         style="fill:#ececec;stroke-width:0.26458332"
         sodipodi:type="star"
         inkscape:export-filename="C:\dev\bubble\Assets\Sprites\hammer.png"
         inkscape:export-xdpi="250.57712"
         inkscape:export-ydpi="250.57712" />
      <path
         sodipodi:type="star"
         style="fill:#ececec;stroke-width:0.26458332"
         id="path3934"
         sodipodi:sides="5"
         sodipodi:cx="181.99554"
         sodipodi:cy="133.14732"
         sodipodi:r1="19.121449"
         sodipodi:r2="17.227831"
         sodipodi:arg1="0.82034896"
         sodipodi:arg2="1.4486675"
         inkscape:flatsided="true"
         inkscape:rounded="0.05"
         inkscape:randomized="0"
         d="m 195.03572,147.13244 c -0.82202,0.76648 -21.32819,3.28341 -22.31118,2.73847 -0.98298,-0.54494 -9.71347,-19.26969 -9.49897,-20.37296 0.21451,-1.10327 15.32494,-15.19273 16.4405,-15.32965 1.11555,-0.13692 19.1848,9.88007 19.65975,10.89872 0.47495,1.01864 -3.46807,21.29894 -4.2901,22.06542 z"
         inkscape:transform-center-x="-0.32040509"
         inkscape:transform-center-y="0.21374893"
         transform="matrix(0.53439761,0,0,0.66790124,165.96339,71.153018)"
         inkscape:export-filename="C:\dev\bubble\Assets\Sprites\hammer.png"
         inkscape:export-xdpi="250.57712"
         inkscape:export-ydpi="250.57712" />
      <path
         transform="matrix(0.47689114,0.24666995,-0.30140031,0.60965943,217.13669,52.332792)"
         inkscape:transform-center-y="0.9838136"
         inkscape:transform-center-x="-0.79480006"
         d="m 195.03572,147.13244 c -0.82202,0.76648 -21.32819,3.28341 -22.31118,2.73847 -0.98298,-0.54494 -9.71347,-19.26969 -9.49897,-20.37296 0.21451,-1.10327 15.32494,-15.19273 16.4405,-15.32965 1.11555,-0.13692 19.1848,9.88007 19.65975,10.89872 0.47495,1.01864 -3.46807,21.29894 -4.2901,22.06542 z"
         inkscape:randomized="0"
         inkscape:rounded="0.05"
         inkscape:flatsided="true"
         sodipodi:arg2="1.4486675"
         sodipodi:arg1="0.82034896"
         sodipodi:r2="17.227831"
         sodipodi:r1="19.121449"
         sodipodi:cy="133.14732"
         sodipodi:cx="181.99554"
         sodipodi:sides="5"
         id="path3936"
         style="fill:#ececec;stroke-width:0.26458332"
         sodipodi:type="star"
         inkscape:export-filename="C:\dev\bubble\Assets\Sprites\hammer.png"
         inkscape:export-xdpi="250.57712"
         inkscape:export-ydpi="250.57712" />
      <path
         style="fill:#ffffff;stroke-width:0.99999994"
         d="m 688.9237,442.68632 c -47.28301,-82.27739 -52.80349,379.04455 -20.20305,286.88455 36.07514,-101.98283 281.61643,-54.52597 317.18839,-3.03046 55.30806,80.06635 1.0679,-383.93943 -33.33504,-295.97592 -36.185,92.52 -201.87225,119.62212 -263.6503,12.12183 z"
         transform="scale(0.26458333)"
         id="rect3913"
         inkscape:connector-curvature="0"
         sodipodi:nodetypes="sssss"
         inkscape:export-filename="C:\dev\bubble\Assets\Sprites\hammer.png"
         inkscape:export-xdpi="250.57712"
         inkscape:export-ydpi="250.57712" />
    </g>
    <path
       style="display:inline;fill:#ffffff;stroke-width:0.26458332"
       d="M 66.618681,2.8074747 C 61.347377,2.8695592 56.080838,4.5521266 52.820041,7.8030357 28.002374,32.545448 80.239439,92.897128 51.483689,112.92736 39.032882,121.60016 19.617662,87.273089 8.5876009,97.693155 c -12.9258221,12.210975 0.82378,40.424605 14.9670421,51.202035 22.295771,16.98978 63.213924,20.0501 84.083757,1.33635 14.29422,-12.81746 22.00266,-47.8018 5.34541,-57.348946 C 101.58875,86.351482 92.680989,121.83363 80.980079,115.86775 48.809363,99.465045 106.1659,32.883009 80.445745,7.5358667 77.166192,4.3038813 71.889985,2.7453876 66.618681,2.8074747 Z"
       id="rect72"
       inkscape:connector-curvature="0" />
  </g>
</svg>
